<svg width="60" height="32" viewBox="0 0 60 32" fill="none" xmlns="http://www.w3.org/2000/svg">
<path d="M41.3147 10.9823H35.5984V8.19007C35.5984 5.95078 33.6536 4.15381 31.2965 4.15381H28.733C26.3463 4.15381 24.4016 5.95078 24.4016 8.19007V10.9823H18.6853C17.8603 10.9823 17.0647 11.3417 16.5638 12.0052C16.0334 12.6687 15.8566 13.5533 16.1218 14.3827L18.921 25.9662V26.0215C19.2746 27.1273 20.3059 27.8461 21.4845 27.8461H38.486C39.6647 27.8461 40.6959 27.0997 41.0495 26.0215L43.8782 14.3827C44.1434 13.581 43.9665 12.6963 43.4361 12.0052C42.9353 11.3693 42.1397 10.9823 41.3147 10.9823ZM25.8159 8.19007C25.8159 6.69721 27.1124 5.4808 28.7035 5.4808H31.267C32.8581 5.4808 34.1546 6.69721 34.1546 8.19007V10.9823H25.8159V8.19007ZM38.486 26.4915C31.858 26.4915 28.142 26.4915 21.514 26.4915C20.9836 26.4915 20.5122 26.1597 20.3354 25.6345C20.3354 25.6345 20.6063 26.4982 21.514 26.4915C28.1084 26.4422 31.8916 26.4422 38.486 26.4915C39.4307 26.4986 39.6941 25.6345 39.6941 25.6345C39.5173 26.1597 39.0459 26.4915 38.486 26.4915ZM42.4932 14.0233L40.2539 23.2846L39.6941 25.6345C39.6941 25.6345 39.4307 26.4986 38.486 26.4915C31.8916 26.4422 28.1084 26.4422 21.514 26.4915C20.6063 26.4982 20.3354 25.6345 20.3354 25.6345L17.5067 14.0509V13.9956C17.3594 13.581 17.4478 13.1386 17.713 12.7792C17.9487 12.4751 18.3023 12.3093 18.6853 12.3093H24.4016V15.7097H25.8159V12.3369H34.1546V15.7097H35.5984V12.3369H41.3147C41.6977 12.3369 42.0513 12.5028 42.287 12.8069C42.5523 13.1386 42.6406 13.6086 42.4932 14.0233Z" fill="white"/>
</svg>
